<svg width="48" height="40" viewBox="0 0 48 40" fill="none" xmlns="http://www.w3.org/2000/svg">
<path d="M30 16C30 14.4087 29.3679 12.8826 28.2426 11.7574C27.1174 10.6321 25.5913 10 24 10C22.4087 10 20.8826 10.6321 19.7574 11.7574C18.6321 12.8826 18 14.4087 18 16C18 23 15 25 15 25H33C33 25 30 23 30 16Z" stroke="#191D23" stroke-width="2" stroke-linecap="round" stroke-linejoin="round"/>
<path d="M25.73 29C25.5542 29.3031 25.3019 29.5547 24.9982 29.7295C24.6946 29.9044 24.3504 29.9965 24 29.9965C23.6496 29.9965 23.3054 29.9044 23.0018 29.7295C22.6982 29.5547 22.4458 29.3031 22.27 29" stroke="#191D23" stroke-width="2" stroke-linecap="round" stroke-linejoin="round"/>
<circle cx="30" cy="11" r="3" fill="#047857"/>
</svg>
