<svg width="51" height="33" viewBox="0 0 51 33" fill="none" xmlns="http://www.w3.org/2000/svg">
<path fill-rule="evenodd" clip-rule="evenodd" d="M15.8074 16.3806C15.8943 16.5898 16.0654 16.7512 16.2762 16.8228L24.8687 19.7418C24.9763 19.7784 25.0888 19.7897 25.1983 19.7767C25.3024 19.7643 25.4038 19.7298 25.4956 19.6741L32.9565 15.1461C33.1561 15.025 33.2891 14.8163 33.3175 14.5799C33.3458 14.3434 33.2664 14.1053 33.102 13.9338L22.9306 3.32929C22.7569 3.14827 22.5097 3.06296 22.266 3.1009C22.0228 3.13871 21.814 3.29474 21.7056 3.51962L15.8237 15.7332C15.7265 15.935 15.7205 16.1713 15.8074 16.3806Z" fill="#FFCC02"/>
<path fill-rule="evenodd" clip-rule="evenodd" d="M25.6776 22.0341C25.638 21.7407 25.4395 21.4934 25.1653 21.3956L2.51148 13.3228C2.19729 13.2108 1.85084 13.3184 1.6546 13.5891C1.4585 13.8597 1.45771 14.2311 1.65269 14.5078L12.8597 30.409C13.0291 30.6494 13.3064 30.7648 13.5744 30.7329C13.6895 30.7191 13.8029 30.6782 13.9052 30.6082L25.3521 22.7798C25.5911 22.6163 25.7171 22.3275 25.6776 22.0341Z" fill="#EFAE07"/>
<path fill-rule="evenodd" clip-rule="evenodd" d="M47.1153 7.97063C46.8586 7.75081 46.4944 7.72461 46.2155 7.90587L13.2674 29.3116C12.9692 29.5053 12.844 29.8851 12.9657 30.228C13.0874 30.5711 13.4234 30.7843 13.7761 30.744L39.392 27.8163L39.3957 27.8159C39.6687 27.7833 39.9019 27.605 40.005 27.3451L47.3371 8.8668C47.4616 8.5531 47.3718 8.19038 47.1153 7.97063Z" fill="#FFCC02"/>
</svg>
