<svg width="48" height="40" viewBox="0 0 48 40" fill="none" xmlns="http://www.w3.org/2000/svg">
<path d="M33.21 23.8901C32.5738 25.3946 31.5788 26.7203 30.3119 27.7514C29.0449 28.7825 27.5447 29.4875 25.9424 29.8049C24.3401 30.1222 22.6844 30.0422 21.1201 29.5719C19.5558 29.1015 18.1306 28.2551 16.969 27.1067C15.8074 25.9583 14.9448 24.5428 14.4566 22.984C13.9684 21.4252 13.8695 19.7706 14.1686 18.1647C14.4676 16.5589 15.1555 15.0507 16.172 13.7721C17.1886 12.4935 18.5029 11.4834 20 10.8301" stroke="#191D23" stroke-width="2" stroke-linecap="round" stroke-linejoin="round"/>
<path d="M34 20C34 18.6868 33.7413 17.3864 33.2388 16.1732C32.7362 14.9599 31.9997 13.8575 31.0711 12.9289C30.1425 12.0003 29.0401 11.2638 27.8268 10.7612C26.6136 10.2587 25.3132 10 24 10V20H34Z" stroke="#191D23" stroke-width="2" stroke-linecap="round" stroke-linejoin="round"/>
</svg>
