<svg width="48" height="40" viewBox="0 0 48 40" fill="none" xmlns="http://www.w3.org/2000/svg">
<path d="M26 10H18C17.4696 10 16.9609 10.2107 16.5858 10.5858C16.2107 10.9609 16 11.4696 16 12V28C16 28.5304 16.2107 29.0391 16.5858 29.4142C16.9609 29.7893 17.4696 30 18 30H30C30.5304 30 31.0391 29.7893 31.4142 29.4142C31.7893 29.0391 32 28.5304 32 28V16L26 10Z" stroke="#191D23" stroke-width="2" stroke-linecap="round" stroke-linejoin="round"/>
<path d="M28 25H20" stroke="#191D23" stroke-width="2" stroke-linecap="round" stroke-linejoin="round"/>
<path d="M28 21H20" stroke="#191D23" stroke-width="2" stroke-linecap="round" stroke-linejoin="round"/>
<path d="M22 17H21H20" stroke="#191D23" stroke-width="2" stroke-linecap="round" stroke-linejoin="round"/>
<path d="M26 10V16H32" stroke="#191D23" stroke-width="2" stroke-linecap="round" stroke-linejoin="round"/>
</svg>
